<?xml version="1.0" encoding="UTF-8" standalone="no"?>
<!-- Created with Inkscape (http://www.inkscape.org/) -->

<svg
   xmlns:dc="http://purl.org/dc/elements/1.1/"
   xmlns:cc="http://creativecommons.org/ns#"
   xmlns:rdf="http://www.w3.org/1999/02/22-rdf-syntax-ns#"
   xmlns:svg="http://www.w3.org/2000/svg"
   xmlns="http://www.w3.org/2000/svg"
   xmlns:sodipodi="http://sodipodi.sourceforge.net/DTD/sodipodi-0.dtd"
   xmlns:inkscape="http://www.inkscape.org/namespaces/inkscape"
   width="1000"
   height="950.63702"
   viewBox="0 0 264.58333 251.52272"
   version="1.1"
   id="svg8"
   inkscape:version="0.92.2 (5c3e80d, 2017-08-06)"
   sodipodi:docname="Kumon Face.svg">
  <defs
     id="defs2">
    <clipPath
       id="clipPath7550">
      <path
         inkscape:connector-curvature="0"
         id="path7552"
         d="M 18,18 H 594 V 89.28 H 18 Z" />
    </clipPath>
    <clipPath
       id="clipPath7614">
      <path
         inkscape:connector-curvature="0"
         id="path7616"
         d="M 432,34.04 H 578.687 V 78.32 H 432 Z" />
    </clipPath>
    <clipPath
       id="clipPath7628">
      <path
         inkscape:connector-curvature="0"
         id="path7630"
         d="M 18,18 H 594 V 89.28 H 18 Z" />
    </clipPath>
  </defs>
  <sodipodi:namedview
     id="base"
     pagecolor="#ffffff"
     bordercolor="#666666"
     borderopacity="1.0"
     inkscape:pageopacity="0.0"
     inkscape:pageshadow="2"
     inkscape:zoom="0.35355339"
     inkscape:cx="91.861458"
     inkscape:cy="481.38693"
     inkscape:document-units="px"
     inkscape:current-layer="layer1"
     showgrid="false"
     units="px"
     inkscape:window-width="1366"
     inkscape:window-height="705"
     inkscape:window-x="-8"
     inkscape:window-y="-8"
     inkscape:window-maximized="1" />
  <metadata
     id="metadata5">
    <rdf:RDF>
      <cc:Work
         rdf:about="">
        <dc:format>image/svg+xml</dc:format>
        <dc:type
           rdf:resource="http://purl.org/dc/dcmitype/StillImage" />
        <dc:title></dc:title>
      </cc:Work>
    </rdf:RDF>
  </metadata>
  <g
     inkscape:label="Layer 1"
     inkscape:groupmode="layer"
     id="layer1"
     transform="translate(0,-45.477278)">
    <path
       inkscape:connector-curvature="0"
       style="fill:#000000;fill-opacity:1;fill-rule:nonzero;stroke:none;stroke-width:7.71260643"
       id="path7622"
       d="M 263.74613,161.61364 C 261.9414,142.09301 252.41632,125.81172 245.57525,108.33494 237.54643,95.678541 226.13949,83.407776 213.86099,74.985626 204.27425,70.103545 196.39968,60.8947 185.00043,60.200564 160.52833,49.649706 130.61114,47.366786 102.30586,51.145971 99.459914,45.322941 92.850209,46.425838 87.497662,45.477194 79.962443,48.623935 71.000394,48.31543 63.73512,52.318297 52.027386,55.002281 41.160322,63.732936 33.686804,73.258024 20.698778,84.140475 18.307869,97.799512 9.6466114,111.05748 8.697959,115.38425 7.4253805,122.90405 4.8108059,126.51355 -6.7581018,175.3035 1.270721,228.17344 42.818532,259.64085 c 23.430899,17.38422 48.697398,30.51877 77.018088,36.27237 42.48874,4.0183 83.57381,-2.0438 111.57828,-36.27237 26.43108,-26.19201 36.27237,-61.36148 32.33123,-98.02721 m -30.61133,60.64421 c -16.27359,24.17129 -40.59917,50.45585 -70.26955,53.19383 -17.05259,4.26507 -39.77392,4.96695 -55.54619,-2.8228 C 76.406933,259.8028 39.047067,242.08694 25.819946,206.9329 8.9987512,167.27468 20.151181,119.59536 46.751961,87.96596 57.834977,73.327413 74.285966,66.563476 91.51593,64.211127 c 1.257153,2.352349 2.683984,5.583913 5.668764,6.20866 10.134366,1.411402 18.564246,-4.797259 29.431316,-3.385857 40.83051,2.28292 82.3629,16.767215 104.24357,55.4768 16.75178,28.08159 20.69291,71.19507 2.27522,99.74712" />
    <path
       inkscape:connector-curvature="0"
       style="fill:#000000;fill-opacity:1;fill-rule:nonzero;stroke:none;stroke-width:7.71260643"
       id="path7634"
       d="m 76.803359,90.248106 c 3.540089,6.763936 0.956365,15.348074 -2.275219,21.556734 -4.103106,4.72013 -10.473719,6.06211 -16.450989,4.48876 -3.216155,-3.61724 -2.360058,-9.60222 -1.727623,-14.1681 0.97179,-6.555685 4.164807,-12.586963 11.337533,-15.26321 3.447534,0.239034 6.362901,1.496224 9.116298,3.385816" />
    <path
       inkscape:connector-curvature="0"
       style="fill:#000000;fill-opacity:1;fill-rule:nonzero;stroke:none;stroke-width:7.71260643"
       id="path7654"
       d="m 208.75449,116.8481 c 3.69432,3.84861 4.79722,9.50965 3.37812,14.78506 -1.74304,5.90016 -7.30386,9.28601 -12.42502,11.87744 -3.23156,-0.0692 -6.14692,-0.62471 -8.49927,-2.83054 -2.59147,-7.165 -0.24677,-15.109 2.27522,-21.55674 3.30869,-5.11346 11.17556,-7.23443 15.27095,-2.27522" />
    <path
       inkscape:connector-curvature="0"
       style="fill:#000000;fill-opacity:1;fill-rule:nonzero;stroke:none;stroke-width:7.71260643"
       id="path7658"
       d="m 151.3912,245.79519 c 8.27563,2.67625 18.89588,1.10289 24.95029,7.94396 0.47045,4.0183 -0.40111,7.56606 -3.46295,10.24235 -8.66126,2.1904 -15.26325,-4.18021 -22.65193,-1.73534 -13.45079,-3.69432 -31.95334,3.68663 -41.31644,-8.50701 -0.94865,-3.37812 -1.1029,-8.34503 2.29064,-10.22688 14.0832,-2.59916 26.43109,2.37548 40.19039,2.28292" />
  </g>
</svg>
